<?xml version="1.0" standalone="no"?>
<!DOCTYPE svg PUBLIC "-//W3C//DTD SVG 20010904//EN"
 "http://www.w3.org/TR/2001/REC-SVG-20010904/DTD/svg10.dtd">
<svg version="1.0" xmlns="http://www.w3.org/2000/svg"
 width="1280.000000pt" height="1088.000000pt" viewBox="0 0 1280.000000 1088.000000"
 preserveAspectRatio="xMidYMid meet">
<g transform="translate(0.000000,1088.000000) scale(0.100000,-0.100000)"
fill="#000000" stroke="none">
<path d="M6399 10875 c-3 -2 -48 -9 -100 -15 -116 -13 -209 -30 -209 -39 0 -4
28 -21 62 -37 130 -61 279 -196 349 -316 22 -38 43 -68 47 -68 27 0 132 78
212 158 106 105 178 147 309 180 43 11 69 22 62 27 -28 17 -214 64 -311 79
-58 9 -133 21 -166 26 -62 10 -247 14 -255 5z"/>
<path d="M5200 10819 c-94 -11 -290 -48 -308 -58 -9 -5 3 -10 34 -15 67 -9
137 -52 212 -130 35 -36 67 -66 72 -66 4 0 38 36 74 79 71 86 121 125 218 171
l63 30 -145 -1 c-80 -1 -179 -5 -220 -10z"/>
<path d="M5658 10735 c-87 -22 -187 -75 -239 -127 -59 -59 -143 -167 -136
-175 4 -3 37 18 74 46 83 62 167 107 301 160 122 49 149 51 162 15 14 -37 5
-45 -103 -89 -50 -21 -136 -60 -189 -87 -82 -42 -110 -62 -173 -130 -42 -44
-83 -94 -91 -110 -21 -40 -74 -215 -74 -244 0 -23 33 -54 57 -54 7 0 63 34
124 75 61 41 119 75 129 75 22 0 60 -37 60 -57 0 -32 -115 -115 -295 -213
l-120 -66 -82 -118 c-128 -186 -194 -265 -302 -360 -100 -88 -100 -89 -133
-180 l-33 -91 -2 -380 c-2 -248 1 -409 9 -462 9 -65 8 -103 -2 -175 -7 -51
-15 -145 -17 -208 -5 -125 -4 -132 69 -303 l33 -79 -38 -186 c-21 -102 -43
-194 -48 -204 -10 -18 -36 -22 -76 -12 -31 8 -30 38 7 212 16 78 30 153 30
167 0 14 -19 69 -42 123 -40 94 -42 101 -46 225 -2 71 1 164 7 207 18 124 16
212 -8 257 -42 83 -140 180 -276 273 -173 117 -259 142 -505 143 -144 1 -175
-2 -245 -21 -115 -33 -190 -77 -271 -157 -84 -83 -122 -139 -239 -345 -111
-197 -213 -341 -273 -386 -70 -52 -178 -101 -262 -118 -121 -26 -375 -39 -538
-28 -167 11 -182 18 -166 78 l9 37 290 1 c320 2 383 10 502 66 91 42 144 100
183 201 41 106 49 197 26 300 -26 117 -61 167 -241 344 -174 171 -205 215
-249 345 -31 94 -47 205 -32 225 15 19 82 30 91 15 4 -7 16 -55 26 -108 11
-56 33 -127 54 -170 31 -65 54 -93 203 -240 155 -153 173 -174 212 -253 27
-56 46 -111 53 -158 6 -39 15 -71 19 -71 4 0 33 44 64 98 138 234 266 351 462
418 52 18 96 35 99 37 2 3 -7 28 -21 56 -24 47 -26 59 -26 198 0 180 19 453
33 471 6 7 24 12 41 10 l31 -3 -5 -145 c-3 -80 -5 -219 -5 -310 l0 -165 31
-50 31 -50 154 -6 c85 -4 188 -14 229 -23 129 -27 271 -110 470 -274 l40 -34
0 250 c0 284 8 364 51 489 l30 88 -26 21 c-15 11 -112 65 -217 120 -217 113
-332 185 -536 337 -147 111 -160 128 -123 161 25 22 30 20 191 -98 200 -147
271 -192 459 -291 97 -50 206 -109 243 -129 l68 -38 37 30 c82 65 213 214 310
352 55 80 113 156 127 169 14 14 26 28 26 32 0 16 -207 110 -275 125 -56 12
-184 17 -625 24 -371 6 -592 14 -668 23 -97 13 -123 13 -195 1 -160 -28 -341
-97 -452 -174 -53 -37 -228 -227 -220 -240 3 -5 30 -18 61 -29 51 -20 57 -20
85 -5 17 8 40 31 51 50 15 26 27 34 48 34 89 0 36 -129 -72 -174 -57 -24 -81
-20 -197 32 l-106 47 -150 0 c-150 0 -150 0 -218 -33 -189 -93 -498 -398 -636
-627 -122 -201 -213 -413 -267 -621 -39 -148 -85 -257 -132 -313 -24 -29 -33
-33 -56 -27 -36 9 -43 33 -21 70 61 102 87 163 114 273 17 67 31 129 31 138 0
19 -33 16 -235 -21 -244 -44 -314 -77 -411 -192 -128 -154 -272 -399 -309
-527 -25 -85 -17 -202 19 -280 44 -97 166 -209 303 -279 29 -14 59 -26 66 -26
15 0 92 78 122 123 15 24 17 38 10 95 -4 37 -9 89 -9 117 -1 48 0 49 33 56 19
4 40 5 47 2 15 -5 43 -120 51 -205 5 -49 2 -63 -22 -105 -15 -26 -96 -115
-180 -198 -181 -180 -185 -187 -192 -390 -6 -162 12 -270 62 -371 88 -179 313
-433 435 -492 57 -28 266 -80 276 -69 3 2 -7 29 -21 60 -56 123 -51 200 30
430 64 184 78 272 64 413 -14 156 -50 289 -121 447 -22 48 -38 95 -36 105 2 9
19 25 37 34 45 22 55 14 97 -79 112 -245 163 -512 135 -708 -6 -43 -38 -158
-71 -256 -41 -120 -60 -192 -60 -225 0 -117 113 -262 265 -341 146 -75 549
-210 741 -248 34 -7 20 -16 286 181 90 66 237 171 328 233 91 62 171 119 179
126 12 11 -1 21 -80 58 -72 34 -123 69 -220 150 -69 58 -155 138 -190 178
-223 251 -283 302 -560 474 -211 131 -264 169 -356 259 -77 73 -88 99 -55 129
29 27 55 20 97 -24 68 -70 193 -162 378 -277 297 -185 379 -252 513 -419 72
-89 267 -268 365 -334 46 -32 210 -99 240 -99 12 0 67 28 123 63 203 127 274
161 430 202 49 14 90 26 92 28 3 2 -11 58 -30 123 -57 199 -123 621 -141 905
-18 278 -35 411 -65 498 -11 34 -59 144 -105 244 -47 101 -85 193 -85 205 0
24 27 42 64 42 27 0 23 8 151 -270 113 -246 118 -272 155 -810 14 -203 79
-597 132 -792 12 -46 17 -89 14 -104 -7 -27 -7 -27 36 -20 179 29 381 26 578
-9 136 -24 235 -28 385 -16 262 21 372 56 479 150 32 29 83 70 112 92 36 26
54 47 54 61 0 11 9 51 20 88 27 90 38 177 28 223 -12 56 -56 114 -215 284 -79
84 -143 157 -143 161 0 13 35 42 50 42 7 0 33 -18 57 -41 25 -22 47 -39 49
-36 3 2 -13 46 -36 96 -22 51 -40 98 -40 106 0 16 35 29 51 19 16 -10 81 -154
113 -252 19 -55 43 -102 72 -140 151 -193 165 -254 109 -462 -22 -82 -22 -83
28 -74 23 5 141 8 263 9 l221 0 95 48 c168 82 338 225 423 353 54 81 81 170
99 321 23 200 64 266 135 217 25 -18 25 -32 -2 -114 -8 -25 -20 -93 -26 -153
-23 -229 -122 -401 -323 -560 -50 -39 -86 -73 -80 -75 6 -2 125 22 264 53 139
31 300 63 358 71 196 26 393 15 575 -33 155 -40 148 -40 202 3 232 186 419
376 635 646 139 172 316 360 366 387 23 12 62 -11 62 -37 0 -10 -45 -62 -101
-117 -55 -55 -173 -190 -262 -300 -171 -213 -441 -492 -579 -600 -42 -33 -77
-65 -77 -71 -1 -12 285 -186 338 -207 35 -13 32 -15 133 103 30 35 56 35 92 0
17 -17 17 -19 0 -56 -24 -49 -126 -158 -164 -174 -42 -17 -79 -2 -285 121
-302 180 -373 206 -610 229 -182 16 -296 3 -695 -85 -135 -29 -281 -59 -325
-65 -44 -6 -107 -15 -141 -21 -33 -5 -83 -9 -110 -9 -56 0 -248 -48 -344 -86
-138 -54 -281 -153 -445 -306 l-80 -75 19 -49 c54 -142 58 -211 21 -362 -32
-130 -38 -142 -76 -142 -39 0 -45 19 -30 89 43 196 44 204 33 266 -7 37 -33
103 -69 173 l-58 114 24 19 c29 24 36 24 61 -1 11 -11 23 -20 26 -20 3 0 47
38 98 83 133 121 235 194 350 254 108 56 105 64 -16 39 -87 -19 -110 -32 -215
-121 -48 -42 -116 -89 -149 -105 -172 -84 -550 -115 -821 -68 -183 31 -433 31
-590 0 -158 -32 -272 -66 -354 -108 -262 -132 -1024 -653 -1231 -843 -75 -68
-89 -113 -123 -388 -14 -114 -30 -224 -35 -243 -25 -91 6 -162 122 -285 l79
-84 13 -88 c8 -48 21 -107 30 -130 11 -33 13 -55 6 -96 -16 -100 19 -185 119
-291 31 -32 82 -78 114 -101 91 -69 293 -185 322 -185 14 0 79 -24 143 -54
232 -106 340 -123 557 -84 33 6 64 14 69 18 4 5 -11 21 -35 36 -128 83 -215
189 -251 307 -18 60 -20 86 -16 205 6 156 26 233 123 461 35 80 50 127 43 130
-7 2 -39 -25 -72 -60 -51 -54 -77 -97 -158 -259 -105 -210 -138 -260 -199
-290 -50 -26 -63 -25 -77 6 -12 26 -2 64 18 64 33 0 78 67 177 263 98 194 113
218 177 283 52 52 91 80 145 106 l74 35 -69 37 c-38 20 -100 61 -138 91 -38
30 -73 55 -79 55 -5 0 -84 41 -176 92 -91 50 -210 116 -263 145 -54 30 -100
58 -103 63 -11 18 14 60 36 60 12 0 105 -43 205 -95 101 -52 186 -95 189 -95
2 0 -7 26 -21 58 -15 31 -36 81 -47 111 -20 52 -20 54 -2 67 34 25 65 18 77
-18 26 -74 110 -227 157 -284 105 -129 250 -209 433 -239 170 -27 228 -22 493
45 130 33 249 67 263 74 15 8 51 41 80 74 35 40 64 64 90 73 20 6 40 13 43 15
4 2 -31 86 -77 186 -46 101 -84 193 -84 206 0 27 43 51 66 36 8 -5 43 -72 78
-149 104 -233 133 -279 184 -289 54 -12 409 -56 497 -62 136 -10 179 5 500
167 154 78 282 143 284 145 3 3 8 32 12 65 12 105 109 278 323 579 65 91 139
200 164 243 26 42 55 80 65 83 22 7 57 -22 57 -46 0 -23 -82 -152 -227 -355
-141 -199 -190 -277 -249 -399 -51 -103 -56 -132 -21 -122 67 19 116 17 232
-9 153 -35 329 -42 654 -25 252 13 276 17 400 78 99 48 173 123 229 230 44 82
55 92 93 72 27 -15 24 -41 -12 -113 -43 -85 -100 -158 -165 -207 -29 -23 -52
-46 -49 -50 3 -5 22 -14 43 -20 20 -7 91 -43 157 -81 189 -108 207 -113 420
-113 99 -1 196 2 216 7 41 8 109 71 263 242 127 141 180 183 367 290 85 48
219 130 299 183 128 84 166 116 326 276 99 100 197 207 218 240 21 32 71 140
111 240 87 219 121 287 238 481 146 241 178 330 153 425 -7 25 -76 151 -153
281 -137 228 -213 368 -213 388 0 14 53 41 79 41 15 0 32 -23 67 -87 26 -49
103 -180 170 -293 67 -113 131 -225 143 -249 66 -128 26 -279 -145 -558 -42
-68 -73 -130 -70 -138 5 -14 82 -61 256 -154 95 -51 285 -197 297 -228 9 -22
-14 -63 -36 -63 -10 0 -62 36 -115 80 -53 43 -126 96 -164 116 -37 20 -116 63
-175 96 -60 33 -114 57 -121 55 -7 -3 -50 -99 -96 -213 -56 -138 -101 -235
-134 -284 -29 -42 -125 -151 -221 -249 -161 -165 -180 -180 -360 -301 -104
-69 -243 -155 -308 -191 -65 -35 -144 -84 -175 -109 -66 -53 -312 -319 -312
-338 0 -7 27 -54 61 -103 71 -105 89 -145 89 -192 0 -29 -5 -37 -29 -47 -46
-19 -61 -10 -86 51 -19 47 -44 88 -116 192 -4 6 -78 4 -181 -3 -281 -21 -399
2 -586 112 -133 78 -205 107 -266 108 l-49 0 7 -47 c9 -67 62 -175 107 -219
43 -42 48 -63 21 -87 -27 -24 -38 -22 -86 23 -52 48 -107 155 -132 253 l-16
67 -77 0 c-42 0 -180 -5 -308 -10 -268 -13 -409 -4 -560 34 -96 24 -103 25
-159 11 -33 -8 -196 -84 -364 -169 -380 -192 -407 -201 -589 -193 -75 3 -217
17 -317 31 -99 14 -217 28 -262 32 l-81 7 -81 -84 c-44 -46 -83 -94 -86 -106
-7 -27 28 -105 110 -247 64 -112 75 -150 76 -258 l0 -76 48 -16 c26 -8 80 -24
120 -36 69 -20 72 -22 72 -51 0 -43 -17 -69 -44 -69 -36 0 -191 47 -245 75
-61 30 -71 56 -71 183 l0 96 -70 122 c-74 130 -110 210 -110 247 0 50 -6 49
-220 -4 -203 -50 -204 -50 -354 -48 -125 1 -160 -2 -205 -17 l-55 -19 -47
-107 c-136 -307 -172 -432 -167 -593 3 -95 7 -118 30 -167 76 -163 195 -241
538 -352 110 -36 201 -73 245 -98 71 -42 205 -164 205 -186 0 -15 -36 -52 -51
-52 -6 0 -36 24 -67 54 -97 92 -168 130 -355 192 l-171 56 -106 -26 c-218 -53
-357 -58 -507 -18 -40 11 -73 18 -73 17 0 -8 143 -92 245 -144 202 -104 421
-179 650 -222 91 -18 172 -22 475 -29 395 -9 479 -5 735 36 247 40 388 71 521
114 238 77 440 96 839 79 184 -8 359 -9 550 -3 154 5 397 8 540 8 l260 -1 220
-47 c421 -90 403 -88 730 -81 178 3 319 2 365 -4 240 -33 311 -41 460 -55 91
-9 239 -20 330 -26 91 -6 201 -17 245 -25 196 -35 382 -41 569 -19 96 12 122
83 71 192 -39 85 -57 104 -189 207 -138 107 -273 242 -386 387 -41 53 -80 99
-85 101 -6 3 -44 -6 -85 -19 -182 -58 -295 -77 -492 -82 -104 -2 -188 -6 -188
-8 0 -2 16 -25 36 -51 65 -85 74 -113 74 -253 0 -69 -4 -131 -9 -138 -5 -8
-22 -12 -42 -10 l-34 3 -5 130 c-5 118 -7 134 -32 176 -53 89 -158 167 -263
193 -119 29 -1103 136 -1254 136 -53 0 -177 -7 -276 -15 -208 -17 -439 -19
-514 -5 -29 5 -80 21 -114 36 -34 14 -87 37 -118 50 -52 22 -60 23 -96 10 -22
-8 -111 -58 -199 -112 -287 -176 -327 -188 -614 -188 -206 0 -285 10 -522 70
-53 13 -107 24 -120 24 -48 0 -99 -22 -203 -90 -128 -83 -205 -110 -330 -117
-97 -6 -284 11 -316 27 -20 11 -25 45 -10 69 8 12 30 12 148 1 224 -21 315 0
479 111 91 61 159 88 225 89 26 0 102 -13 170 -29 224 -54 303 -64 479 -65 91
0 192 6 225 12 78 16 169 60 335 162 164 101 244 140 288 140 18 0 84 -22 145
-49 171 -76 276 -85 622 -56 99 9 236 16 305 16 134 1 177 -3 660 -57 570 -63
630 -72 707 -106 36 -16 51 -18 64 -9 13 8 40 8 101 0 114 -16 339 -5 461 21
290 62 573 193 929 432 48 32 94 58 102 58 20 0 48 -43 41 -62 -13 -32 -418
-283 -580 -359 -47 -22 -85 -44 -85 -48 0 -16 208 -257 281 -326 41 -38 122
-107 181 -152 62 -48 121 -103 139 -130 80 -116 101 -239 55 -320 l-24 -42 37
-6 c55 -9 320 12 424 35 144 31 247 70 247 92 0 11 12 70 26 131 24 106 25
121 19 283 -6 127 -4 181 5 210 7 21 48 89 91 151 44 61 86 131 95 155 26 68
30 274 9 398 -23 143 -76 327 -126 445 -23 55 -43 112 -43 128 l-1 27 -136 0
c-75 0 -163 3 -195 6 l-60 6 4 -195 c4 -158 -1 -251 -22 -479 -15 -156 -29
-311 -32 -345 -4 -50 -9 -63 -25 -68 -28 -9 -56 3 -62 26 -7 26 6 210 33 469
25 237 23 512 -5 635 -45 198 -135 402 -252 568 -36 50 -68 96 -72 100 -4 4
-49 -19 -99 -52 -118 -78 -168 -139 -320 -393 -145 -244 -209 -326 -406 -523
-115 -115 -180 -171 -274 -234 -71 -49 -146 -109 -177 -144 -77 -85 -90 -93
-120 -73 -14 9 -25 24 -25 34 0 35 136 167 261 252 136 94 289 235 420 387 99
115 157 199 249 358 84 144 154 249 204 303 23 25 100 84 171 132 288 193 447
347 534 517 30 61 61 197 61 274 0 52 -9 90 -41 180 -67 188 -88 272 -128 518
-148 895 -333 1261 -734 1446 -174 80 -369 115 -536 96 -169 -20 -177 -24
-225 -111 -50 -90 -170 -222 -199 -218 -11 2 -26 13 -34 24 -13 20 -9 27 56
105 118 141 174 274 151 358 -28 104 -232 299 -685 655 -209 164 -255 204
-255 221 0 16 33 45 51 45 35 0 633 -487 791 -644 149 -148 198 -229 198 -324
l0 -33 78 8 c112 12 298 8 367 -6 232 -50 405 -136 556 -278 130 -123 212
-252 301 -471 32 -79 74 -171 95 -205 53 -88 184 -261 443 -587 267 -335 344
-437 413 -543 32 -49 64 -85 84 -95 48 -26 211 -179 233 -220 26 -51 25 -36
-6 50 -40 113 -108 236 -172 315 -48 58 -62 84 -76 138 -32 129 -114 316 -198
453 -94 154 -187 253 -295 314 -46 27 -76 51 -82 67 -6 14 -15 78 -21 141 -32
338 -158 590 -426 850 -126 121 -224 197 -361 279 l-98 58 -16 59 c-29 107
-69 170 -198 309 -49 53 -120 139 -158 192 -82 116 -236 280 -347 369 -339
274 -811 485 -1358 609 -58 13 -157 45 -220 71 -145 60 -229 89 -353 120 -212
55 -295 65 -605 74 -162 5 -329 12 -370 16 -84 7 -157 -4 -243 -36 -47 -18
-81 -43 -173 -130 -62 -60 -139 -123 -169 -140 -31 -18 -59 -39 -62 -47 -8
-21 56 -150 95 -191 l33 -35 99 105 c157 167 227 204 484 258 168 34 194 36
203 14 14 -36 -12 -48 -172 -80 -193 -40 -256 -63 -343 -124 -70 -49 -179
-168 -165 -180 4 -4 87 -14 184 -24 266 -25 344 -51 521 -178 l98 -69 87 3
c85 3 87 4 105 33 9 17 33 90 52 163 53 199 74 230 215 316 105 65 215 108
286 113 58 4 68 1 280 -90 276 -119 375 -156 567 -211 214 -62 375 -134 583
-259 190 -114 318 -226 365 -316 13 -27 26 -81 34 -140 l12 -96 87 -47 c254
-138 460 -321 752 -670 71 -84 179 -211 241 -283 61 -71 138 -168 171 -215 34
-47 82 -107 107 -132 25 -26 46 -51 46 -55 0 -19 -41 -73 -56 -73 -32 0 -88
57 -184 186 -55 73 -134 172 -176 221 -42 48 -121 142 -176 208 -166 199 -327
374 -433 468 -103 92 -286 220 -365 256 -242 108 -276 120 -494 161 -128 24
-202 56 -388 168 -190 113 -255 148 -330 176 -281 106 -673 96 -1170 -30 -53
-13 -108 -24 -122 -24 -22 0 -34 -15 -82 -97 -143 -245 -323 -493 -452 -621
l-83 -83 36 -88 c53 -133 54 -178 11 -351 -19 -80 -40 -194 -46 -254 -10 -106
-9 -111 15 -164 32 -69 32 -89 -1 -104 -25 -11 -29 -10 -56 22 -49 59 -60 117
-48 255 5 66 21 165 35 220 54 207 53 232 -12 382 l-37 84 -95 51 c-132 70
-282 158 -303 176 -22 19 -23 46 -2 67 21 20 28 18 174 -66 149 -85 255 -139
273 -139 24 0 107 81 186 180 109 137 341 487 366 552 5 12 -24 39 -102 97
-123 93 -203 136 -284 153 l-56 11 -109 -58 c-60 -32 -199 -110 -309 -173
-110 -63 -243 -136 -295 -163 -85 -43 -110 -62 -240 -191 -164 -162 -201 -219
-264 -409 -50 -148 -60 -225 -53 -419 7 -179 23 -275 82 -473 38 -132 37 -151
-16 -162 -37 -8 -67 16 -107 85 -14 25 -47 72 -72 105 -26 33 -62 82 -80 109
-37 55 -100 197 -100 227 0 22 41 52 62 44 8 -3 29 -42 48 -85 33 -82 87 -176
96 -167 3 2 0 34 -6 70 -5 36 -14 103 -19 149 -7 70 -14 91 -44 138 -66 101
-71 105 -167 139 -60 22 -125 56 -197 104 -116 78 -134 97 -117 124 26 42 39
39 141 -29 54 -36 116 -75 138 -86 55 -27 145 -53 145 -41 0 22 -51 93 -277
386 -46 59 -46 84 -1 99 19 6 31 -3 71 -47 64 -70 246 -312 277 -367 13 -23
27 -42 30 -42 4 0 17 37 29 83 30 113 102 288 147 355 20 31 107 128 193 216
160 164 209 224 229 285 25 74 19 83 -147 210 -52 40 -127 100 -167 134 -41
34 -117 85 -171 113 -59 30 -99 57 -101 68 -6 32 19 76 42 76 31 0 193 -81
243 -121 23 -19 104 -83 180 -143 191 -151 232 -192 240 -239 3 -20 9 -40 13
-42 8 -5 111 116 147 172 15 22 14 25 -32 65 -42 37 -62 70 -143 238 -94 194
-96 196 -186 285 -153 151 -272 205 -466 211 -78 3 -133 -1 -172 -11z m2884
-1532 c10 -9 18 -22 18 -28 0 -7 -41 -57 -92 -111 -125 -135 -143 -181 -117
-294 30 -126 6 -275 -71 -451 -23 -52 -44 -101 -48 -109 -3 -8 45 33 106 92
85 81 130 116 185 142 117 58 166 66 393 66 233 0 286 -11 393 -80 256 -166
441 -503 511 -933 10 -59 20 -110 22 -112 3 -3 38 20 79 51 93 70 132 90 211
109 85 20 97 19 108 -10 15 -40 2 -53 -74 -76 -94 -28 -110 -37 -227 -126
-118 -89 -127 -112 -56 -143 23 -10 64 -21 90 -25 56 -9 72 -29 59 -77 l-9
-33 -67 2 c-75 1 -154 33 -196 78 -21 23 -24 38 -32 150 -20 318 -100 584
-242 805 -94 145 -237 266 -351 295 -72 18 -326 21 -424 4 -128 -23 -167 -48
-355 -227 -171 -165 -242 -206 -461 -272 -135 -40 -152 -40 -171 6 -21 51 -12
58 141 104 69 21 136 45 148 53 30 20 139 204 186 313 62 145 75 208 66 316
-15 178 -12 238 14 292 27 55 205 246 229 246 8 0 24 -7 34 -17z m-3219 -3972
c32 -33 57 -69 57 -80 0 -18 -43 -61 -61 -61 -15 0 -88 70 -110 107 l-21 34
28 30 c15 16 33 29 39 29 7 0 37 -27 68 -59z m1389 -608 c-5 -148 10 -198 88
-302 67 -88 74 -115 34 -133 -26 -12 -30 -10 -81 47 -30 33 -71 93 -91 134
-37 75 -37 76 -37 201 1 147 9 173 58 168 l32 -3 -3 -112z m-3492 -1041 c139
-95 307 -221 334 -251 15 -17 16 -23 6 -36 -22 -26 -43 -17 -145 61 -55 42
-162 119 -239 172 -76 53 -141 103 -144 111 -7 18 25 41 46 34 10 -3 73 -44
142 -91z"/>
<path d="M4625 10683 c-67 -24 -74 -24 -180 -14 -252 25 -547 8 -784 -45 -386
-85 -777 -284 -1059 -537 -44 -40 -71 -57 -90 -57 -64 0 -308 -109 -432 -193
-105 -71 -257 -207 -437 -390 -210 -213 -210 -214 -381 -258 -40 -10 -79 -22
-86 -26 -8 -4 -78 -68 -156 -141 -78 -73 -176 -156 -218 -184 -101 -68 -222
-191 -300 -306 -73 -106 -175 -313 -222 -448 -17 -51 -61 -143 -96 -205 -114
-202 -157 -328 -158 -464 0 -84 13 -147 39 -180 15 -20 16 -19 37 10 29 38 46
55 81 80 l28 20 -27 60 c-22 48 -28 79 -32 159 -3 58 1 123 7 155 37 173 311
598 445 690 85 59 246 105 466 136 63 8 125 18 138 21 17 3 32 26 64 97 62
135 155 314 201 382 139 207 392 459 585 583 99 63 171 82 311 83 201 1 191
-4 338 145 121 123 134 133 233 181 212 102 386 147 555 141 l100 -3 5 85 c6
86 16 117 53 158 27 29 43 28 63 -4 16 -24 16 -28 -4 -70 -16 -32 -22 -63 -22
-113 l0 -68 31 -7 c17 -3 178 -6 358 -6 382 0 699 -14 793 -34 36 -8 100 -30
142 -50 89 -41 79 -49 125 99 17 55 42 117 56 138 l26 38 -25 43 c-42 71 -114
163 -167 210 -56 50 -107 66 -215 66 -59 0 -65 2 -76 25 -14 30 -24 30 -113
-2z"/>
<path d="M8275 10307 c-98 -41 -204 -107 -243 -151 -20 -23 -36 -60 -51 -117
-12 -46 -33 -120 -46 -164 -13 -43 -23 -81 -21 -82 1 -2 59 8 127 22 344 71
664 74 908 9 120 -31 234 -85 441 -209 200 -119 245 -140 352 -160 165 -32
231 -47 299 -70 l69 -24 0 47 c0 106 -82 204 -277 333 -111 73 -334 190 -453
237 -41 16 -129 44 -195 62 -137 36 -287 92 -564 210 -107 45 -211 84 -230 87
-25 2 -60 -6 -116 -30z"/>
<path d="M2014 9924 c-170 -96 -409 -295 -598 -498 -60 -64 -107 -118 -104
-121 2 -2 22 1 44 7 31 10 77 51 230 207 195 199 313 303 451 398 42 29 72 53
67 53 -5 0 -46 -21 -90 -46z"/>
<path d="M6692 9880 c-29 -39 -89 -114 -133 -166 -44 -51 -77 -94 -73 -94 6 0
450 249 513 288 24 15 24 15 5 23 -11 4 -74 10 -140 14 l-119 7 -53 -72z"/>
<path d="M11470 7365 c0 -11 7 -47 15 -80 7 -33 32 -171 54 -306 43 -261 62
-338 136 -544 l47 -130 -12 -100 c-17 -158 -52 -253 -136 -380 -54 -82 -225
-249 -338 -331 l-28 -21 60 -81 c109 -147 193 -312 252 -497 12 -38 28 -76 34
-83 18 -19 186 -35 316 -29 63 2 217 21 342 42 125 20 234 35 242 32 22 -9 32
-56 15 -72 -8 -7 -99 -28 -204 -45 -104 -18 -193 -34 -197 -36 -4 -2 8 -37 26
-77 95 -209 159 -470 172 -696 l7 -132 49 48 c59 57 121 149 176 258 44 88
149 252 175 273 21 18 46 12 64 -14 12 -19 9 -29 -45 -110 -32 -49 -86 -142
-120 -206 -58 -108 -106 -180 -181 -269 l-30 -36 95 -103 c52 -56 101 -117
108 -134 12 -29 13 -30 23 -11 20 37 83 228 108 324 51 202 92 503 102 742 l5
126 -42 114 c-46 122 -148 335 -157 326 -2 -3 2 -40 11 -82 23 -111 21 -133
-9 -141 -40 -10 -51 0 -70 68 -28 101 -30 222 -5 388 31 209 42 401 31 544
-14 179 -29 217 -112 299 -38 38 -73 65 -79 62 -5 -3 -10 -36 -10 -73 0 -96
-25 -233 -60 -337 -45 -132 -73 -268 -74 -365 -1 -83 -2 -85 -29 -94 -39 -14
-59 10 -65 76 -5 68 31 264 70 376 42 121 59 211 65 344 6 117 6 118 -26 183
-39 78 -187 277 -510 685 -276 348 -261 331 -261 305z"/>
<path d="M202 7218 c-17 -18 -38 -50 -47 -71 -8 -20 -31 -61 -49 -90 -42 -66
-62 -112 -87 -204 -24 -91 -24 -126 1 -241 29 -131 43 -172 111 -307 66 -134
153 -260 255 -373 l68 -75 32 -127 c40 -160 80 -255 153 -367 241 -364 723
-636 1355 -764 81 -17 150 -28 152 -26 3 2 13 80 24 173 11 93 23 182 26 197
7 36 -7 52 -79 88 l-58 30 -58 -53 c-31 -29 -86 -69 -121 -87 -56 -30 -74 -35
-131 -34 -36 0 -71 3 -78 7 -17 11 -14 73 5 80 9 3 38 6 66 6 62 0 123 28 187
86 l46 42 -43 48 c-23 27 -76 90 -116 139 -72 88 -75 91 -157 122 -46 18 -118
53 -159 78 -41 24 -81 45 -88 45 -8 0 -87 -33 -175 -74 -238 -109 -243 -111
-377 -109 -63 1 -137 8 -165 15 -45 13 -50 17 -53 44 -5 47 16 58 84 44 84
-18 213 -15 276 5 68 23 243 104 236 110 -2 3 -47 13 -99 24 -52 11 -119 29
-149 40 -184 70 -492 426 -567 656 -23 70 -26 101 -31 255 -6 249 15 332 117
444 28 31 51 58 51 60 0 2 -29 21 -65 41 -36 20 -98 63 -140 95 -43 35 -85 60
-98 60 -13 0 -37 -14 -55 -32z"/>
<path d="M12631 6084 c0 -11 3 -14 6 -6 3 7 2 16 -1 19 -3 4 -6 -2 -5 -13z"/>
<path d="M12645 6020 c21 -179 15 -433 -16 -617 l-11 -62 67 -150 c91 -204
100 -209 91 -56 -20 342 -47 570 -92 774 -29 129 -48 183 -39 111z"/>
<path d="M1960 5300 c0 -32 237 -199 261 -184 11 6 51 96 45 101 -2 2 -53 17
-112 33 -60 16 -128 35 -151 44 -24 8 -43 11 -43 6z"/>
<path d="M12263 3658 c-60 -62 -212 -290 -219 -327 -4 -20 -2 -94 4 -166 11
-129 9 -164 -23 -312 -5 -19 -4 -33 2 -33 15 0 121 76 190 137 74 65 174 182
237 280 41 64 46 77 46 130 0 97 -12 122 -113 227 l-92 98 -32 -34z"/>
<path d="M6285 2819 c-100 -11 -229 -36 -272 -54 -31 -13 -32 -16 -22 -42 24
-66 135 -256 197 -338 94 -125 181 -215 296 -307 55 -43 112 -96 127 -116 28
-39 295 -494 408 -696 108 -193 347 -663 381 -751 63 -160 143 -281 247 -375
56 -49 183 -120 216 -120 9 0 19 -4 22 -10 9 -14 43 -13 112 4 32 8 70 17 85
20 45 10 58 32 58 95 0 74 -34 193 -145 502 -48 134 -94 275 -102 314 -8 38
-19 75 -24 82 -6 7 -58 37 -116 68 -238 126 -566 348 -673 455 -109 109 -148
203 -175 420 -24 189 -37 227 -152 449 -59 113 -126 251 -148 306 l-42 100
-99 1 c-54 1 -135 -2 -179 -7z"/>
<path d="M6672 2813 c2 -13 21 -22 68 -31 36 -8 196 -45 355 -84 611 -147 657
-153 1132 -150 218 1 374 -2 378 -7 6 -10 -21 -41 -36 -41 -5 0 -9 -9 -9 -19
0 -17 4 -19 32 -10 49 14 78 11 78 -7 0 -21 -41 -36 -241 -88 -419 -109 -623
-111 -1128 -11 -308 60 -431 79 -443 67 -4 -4 0 -20 10 -36 16 -27 27 -31 137
-53 574 -113 907 -119 1530 -27 182 27 234 39 332 75 47 18 65 21 74 12 16
-16 6 -27 -55 -56 -76 -36 -145 -52 -346 -81 -359 -52 -463 -60 -750 -60 -299
-1 -395 8 -673 64 -209 42 -206 43 -115 -45 135 -130 235 -164 510 -172 227
-7 356 5 753 72 674 113 731 114 1175 16 96 -22 202 -44 235 -51 33 -6 70 -13
83 -16 40 -8 23 14 -70 91 -171 140 -256 179 -608 274 -124 34 -244 68 -267
77 -42 15 -56 40 -30 50 15 6 411 -100 564 -151 173 -58 270 -118 458 -284 89
-78 114 -86 243 -79 l63 3 -138 141 c-237 241 -393 322 -771 399 -135 27 -166
39 -158 61 7 19 -52 19 -102 -1 -34 -14 -63 -15 -223 -5 -208 11 -734 11 -629
0 36 -4 119 -8 185 -9 156 -2 195 -8 195 -32 0 -18 -10 -19 -142 -19 -395 1
-693 52 -990 168 -62 25 -93 30 -208 36 -74 4 -187 14 -250 22 -63 8 -136 14
-163 14 -41 0 -48 -3 -45 -17z"/>
<path d="M7772 2815 c5 -6 262 -34 453 -49 49 -4 54 -3 25 4 -92 24 -494 62
-478 45z"/>
<path d="M7445 2800 l-50 -6 30 -13 c97 -41 432 -121 510 -121 27 0 33 3 28
16 -10 26 16 34 122 35 l100 2 -165 18 c-300 34 -332 39 -337 60 -5 17 -15 19
-97 17 -50 0 -113 -4 -141 -8z"/>
<path d="M6700 2720 c0 -28 59 -60 192 -103 371 -122 718 -175 1072 -164 154
4 391 29 404 41 2 2 -140 6 -315 9 -391 5 -393 6 -1058 166 -255 62 -295 69
-295 51z"/>
<path d="M9210 2695 c-8 -2 -41 -7 -73 -10 -32 -4 -57 -8 -55 -10 2 -2 69 -18
148 -35 202 -42 298 -73 425 -135 141 -70 238 -147 400 -321 88 -94 139 -141
158 -145 35 -8 41 -14 34 -34 -8 -18 -60 -19 -262 -5 -177 13 -295 32 -514 81
-265 60 -388 79 -523 79 -120 0 -308 -18 -308 -29 0 -4 32 -13 71 -20 40 -7
182 -40 316 -72 383 -93 367 -91 768 -87 324 3 350 2 353 -14 2 -12 -6 -20
-25 -25 -50 -14 -741 -10 -808 5 -33 8 -170 40 -305 72 -135 32 -285 66 -335
74 -246 43 -202 43 -457 2 -128 -21 -242 -41 -253 -45 -15 -6 -5 -13 50 -31
39 -12 149 -54 245 -92 210 -84 506 -171 477 -141 -5 4 -115 62 -245 128 -169
85 -238 125 -241 139 -3 16 1 18 30 12 19 -3 147 -63 284 -131 327 -163 307
-159 725 -159 179 -1 424 4 545 9 214 9 217 10 120 17 -55 4 -284 11 -510 17
-410 10 -459 14 -590 47 -124 31 -400 156 -434 198 -15 18 2 56 24 56 9 0 52
-20 98 -44 128 -69 292 -132 406 -155 91 -19 168 -24 620 -36 492 -14 521 -16
631 -40 173 -39 247 -82 208 -121 -16 -16 -21 -16 -75 4 -79 29 -215 62 -250
61 -15 0 -22 -3 -15 -6 6 -2 12 -13 12 -22 0 -19 -26 -21 -680 -40 -124 -3
-216 -9 -205 -13 48 -16 265 -32 445 -31 186 0 290 10 517 47 84 13 110 9 100
-17 -7 -18 -53 -28 -253 -58 -226 -34 -527 -30 -847 10 -254 33 -477 74 -622
116 -49 15 -187 64 -305 109 -202 79 -283 107 -339 119 -14 4 -67 -9 -128 -30
-72 -25 -108 -32 -115 -25 -16 16 0 32 54 56 l49 22 -178 0 c-268 1 -427 41
-550 141 -29 24 -55 43 -58 43 -3 0 -3 -11 1 -24 3 -13 11 -61 19 -107 11 -73
13 -78 14 -36 1 34 6 49 17 54 25 9 31 -12 39 -119 6 -82 13 -109 41 -169 19
-39 34 -79 34 -90 0 -28 -25 -23 -50 9 -19 24 -20 25 -9 3 23 -49 154 -172
228 -216 21 -12 6 9 -57 84 -30 35 -70 98 -90 139 -32 67 -36 85 -40 177 -3
76 -1 104 8 110 23 14 40 -25 40 -90 0 -127 40 -212 166 -356 58 -65 74 -89
71 -108 -4 -20 8 -32 92 -86 146 -95 370 -221 452 -254 106 -42 149 -49 54 -8
-297 126 -525 284 -613 424 -54 86 -172 387 -172 438 0 46 36 20 60 -45 22
-58 30 -57 30 2 0 56 12 80 32 60 5 -5 14 -55 18 -111 11 -125 31 -163 146
-277 213 -212 609 -401 1037 -493 105 -23 347 -54 355 -46 3 3 3 5 1 5 -20 0
-379 66 -469 86 -410 92 -599 220 -911 617 -101 129 -123 167 -100 181 13 9
40 -19 115 -116 37 -48 75 -92 86 -98 10 -5 79 -10 152 -10 141 0 302 -17 688
-74 444 -66 557 -78 695 -74 124 3 130 2 130 -17 0 -17 -9 -21 -60 -28 -118
-16 -311 0 -777 67 -463 67 -652 87 -633 69 14 -14 264 -103 410 -146 316 -94
420 -110 640 -101 180 7 234 1 455 -51 80 -19 189 -37 243 -41 60 -4 101 -12
108 -20 46 -56 -132 -45 -426 27 -126 30 -139 31 -400 36 -267 5 -272 5 -408
39 -290 72 -681 207 -706 244 -13 19 -61 29 -61 12 0 -14 58 -65 105 -91 25
-14 82 -51 127 -82 120 -81 221 -116 533 -183 341 -74 648 -110 930 -110 169
0 199 3 270 24 92 26 136 30 142 12 6 -15 -60 -46 -148 -68 -54 -14 -106 -16
-349 -11 -239 4 -313 9 -460 31 -309 47 -654 123 -791 176 -69 26 -42 3 51
-45 134 -68 335 -121 654 -175 417 -70 647 -67 946 10 122 32 150 31 137 -3
-6 -17 -158 -61 -287 -83 -52 -9 -97 -18 -99 -20 -13 -13 167 0 290 20 79 13
165 27 191 31 58 8 181 48 185 61 2 5 -34 22 -80 37 -206 71 -557 260 -659
355 -29 27 -37 62 -15 62 8 0 54 -29 103 -64 159 -114 457 -264 651 -327 l101
-33 65 28 c118 50 122 44 -80 124 -98 40 -240 88 -314 108 -229 61 -282 79
-293 96 -5 9 -7 21 -3 25 9 8 254 -52 407 -100 52 -16 151 -52 220 -79 198
-79 227 -88 255 -78 36 14 31 25 -20 44 -119 46 -352 266 -282 266 8 0 58 -39
113 -86 69 -60 124 -98 180 -125 45 -22 88 -39 96 -39 15 0 88 57 88 69 0 14
-179 92 -297 130 -113 35 -155 63 -119 77 24 9 189 -42 316 -97 167 -74 159
-74 219 7 84 114 151 244 151 291 0 62 -47 304 -70 363 -49 123 -132 222 -289
342 -110 85 -159 103 -254 96 l-42 -3 75 -44 c230 -136 376 -295 430 -471 51
-164 84 -310 71 -323 -22 -22 -39 16 -81 173 -52 200 -82 259 -180 364 -100
105 -155 147 -307 235 -120 70 -124 71 -193 71 -38 0 -70 -4 -70 -9 0 -5 38
-28 85 -52 151 -77 261 -174 454 -404 96 -113 128 -162 200 -297 57 -105 66
-151 29 -146 -16 2 -27 16 -39 48 -24 65 -112 214 -174 295 -86 112 -245 285
-320 348 -115 96 -433 243 -488 224 -16 -5 160 -120 312 -201 68 -37 148 -83
176 -102 74 -49 194 -171 242 -246 77 -121 184 -318 178 -328 -21 -34 -52 3
-161 198 -116 209 -196 288 -414 408 -198 109 -306 175 -379 233 -73 58 -75
59 -165 70 -104 12 -284 22 -306 16z"/>
<path d="M6760 2592 c0 -4 13 -28 28 -53 l29 -44 114 -13 c63 -7 179 -26 259
-43 538 -114 769 -123 1100 -44 256 61 258 66 10 33 -218 -30 -619 -32 -805
-5 -219 33 -483 96 -659 156 -65 23 -76 25 -76 13z"/>
<path d="M10590 2563 c19 -14 73 -65 120 -112 127 -128 162 -204 210 -454 19
-98 33 -59 28 79 -5 118 -7 128 -41 196 -25 50 -68 109 -138 185 -101 112
-131 133 -194 133 -16 0 -13 -5 15 -27z"/>
<path d="M10923 2573 c-18 -2 -33 -6 -33 -9 0 -2 24 -37 53 -77 64 -87 107
-156 137 -222 21 -47 23 -49 30 -25 22 69 -10 245 -56 318 -15 23 -43 26 -131
15z"/>
<path d="M10750 2563 c0 -5 32 -44 71 -88 130 -146 164 -211 175 -335 4 -38 9
-70 12 -70 14 0 62 56 62 72 0 57 -200 391 -251 419 -21 11 -69 12 -69 2z"/>
<path d="M7410 1570 c43 -79 183 -208 305 -280 178 -105 426 -207 547 -225 63
-9 76 -19 61 -44 -12 -18 -9 -21 42 -31 30 -6 173 -16 317 -21 145 -5 290 -13
323 -18 110 -17 292 -10 404 15 58 13 -11 18 -326 25 -283 6 -357 10 -453 28
-488 92 -906 277 -1156 514 -87 81 -87 81 -64 37z"/>
</g>
</svg>
